<svg width="245" height="47" viewBox="0 0 245 47" fill="none" xmlns="http://www.w3.org/2000/svg">
<path d="M35.384 28.3054H23.5864V45.9974H35.384V28.3054Z" fill="#78DC78"/>
<path d="M11.7975 0H0V28.3055H11.7975V0Z" fill="#78DC78"/>
<path d="M17.692 10.6135C7.93417 10.6135 0 18.5477 0 28.3055V45.9975H11.7975V28.3055C11.7975 25.0558 14.4423 22.4111 17.692 22.4111C20.9417 22.4111 23.5864 25.0558 23.5864 28.3055H35.384C35.384 18.5477 27.4498 10.6135 17.692 10.6135Z" fill="#005A5A"/>
<path d="M79.5146 23.1368C79.5146 16.525 74.8215 11.1577 66.8009 11.1577H47.1729V45.9972H54.7182V35.1072H62.7128L70.7766 45.9972H79.5146L70.6989 34.6318C76.3254 33.1884 79.5146 28.5904 79.5146 23.1368ZM66.5762 28.5818H54.7268V17.6917H66.5762C70.2149 17.6917 71.9694 20.129 71.9694 23.1368C71.9694 26.1445 70.2235 28.5818 66.5762 28.5818Z" fill="#005A5A"/>
<path d="M207.645 23.1368C207.645 16.525 202.952 11.1577 194.932 11.1577H180.127V45.9972H187.672V35.1072H191.008L198.899 45.9972H207.637L198.821 34.6318C204.448 33.1884 207.645 28.5904 207.645 23.1368ZM194.707 28.5818H187.672V17.6917H194.707C198.346 17.6917 200.1 20.129 200.1 23.1368C200.1 26.1445 198.346 28.5818 194.707 28.5818Z" fill="#78DC78"/>
<path d="M103.646 33.1107C103.646 37.3457 100.863 39.3854 97.4313 39.3854C94.0001 39.3854 91.2171 37.3543 91.2171 33.1107V11.1577H83.6718V31.65C83.6718 41.0448 89.8342 46.5417 97.4313 46.5417C105.028 46.5417 111.191 41.0448 111.191 31.65V11.1577H103.646V33.1107Z" fill="#005A5A"/>
<path d="M134.864 24.7703H125.521V11.1577H117.975V45.9972H125.521V31.2956H134.864V45.9972H142.409V11.1577H134.864V24.7703Z" fill="#78DC78"/>
<path d="M149.816 45.9972H174.249V39.4632H157.361V31.2956H170.464V24.7703H157.361V17.6917H174.249V11.1577H149.816V45.9972Z" fill="#78DC78"/>
<path d="M238.647 27.0693C241.396 25.4444 242.675 23.1368 242.675 20.492C242.675 15.0557 238.535 11.1577 230.515 11.1577H212.658V45.9972H232.286C239.918 45.9972 245 42.4623 245 35.8418C244.991 32.1427 242.865 28.4694 238.647 27.0693ZM220.204 17.6917H230.29C233.332 17.6917 235.13 18.7548 235.13 21.2267C235.13 23.6985 233.332 24.7616 230.29 24.7616H220.204V17.6917ZM232.053 39.4632H220.204V31.2956H232.053C235.346 31.2956 237.446 32.376 237.446 35.3751C237.446 38.3915 235.346 39.4632 232.053 39.4632Z" fill="#78DC78"/>
</svg>
