<svg width="413" height="79" viewBox="0 0 413 79" fill="none" xmlns="http://www.w3.org/2000/svg">
<g clip-path="url(#clip0_49_3)">
<path d="M59.6494 48.0455H39.7614V78.0757H59.6494V48.0455Z" fill="#78DC78"/>
<path d="M19.888 0H0V48.0455H19.888V0Z" fill="#78DC78"/>
<path d="M29.8247 18.0153C13.3752 18.0153 0 31.4827 0 48.0455V78.0758H19.888V48.0455C19.888 42.5295 24.3464 38.0403 29.8247 38.0403C35.303 38.0403 39.7614 42.5295 39.7614 48.0455H59.6494C59.6494 31.4827 46.2742 18.0153 29.8247 18.0153Z" fill="white"/>
<path d="M134.044 39.2726C134.044 28.0498 126.132 18.9395 112.611 18.9395H79.5228V78.0758H92.2424V59.5911H105.72L119.313 78.0758H134.044L119.182 58.7842C128.667 56.3343 134.044 48.5296 134.044 39.2726ZM112.232 48.5149H92.257V30.0303H112.232C118.366 30.0303 121.324 34.1673 121.324 39.2726C121.324 44.3779 118.381 48.5149 112.232 48.5149Z" fill="white"/>
<path d="M350.043 39.2726C350.043 28.0498 342.132 18.9395 328.611 18.9395H303.652V78.0758H316.372V59.5911H321.996L335.298 78.0758H350.029L335.167 58.7842C344.652 56.3343 350.043 48.5296 350.043 39.2726ZM328.232 48.5149H316.372V30.0303H328.232C334.366 30.0303 337.324 34.1673 337.324 39.2726C337.324 44.3779 334.366 48.5149 328.232 48.5149Z" fill="#78DC78"/>
<path d="M174.723 56.2022C174.723 63.3907 170.031 66.8529 164.247 66.8529C158.463 66.8529 153.771 63.4054 153.771 56.2022V18.9395H141.052V53.7229C141.052 69.6696 151.44 79 164.247 79C177.054 79 187.442 69.6696 187.442 53.7229V18.9395H174.723V56.2022Z" fill="white"/>
<path d="M227.35 42.0453H211.6V18.9395H198.88V78.0758H211.6V53.1214H227.35V78.0758H240.069V18.9395H227.35V42.0453Z" fill="#78DC78"/>
<path d="M252.556 78.0758H293.745V66.9849H265.275V53.1214H287.363V42.0453H265.275V30.0303H293.745V18.9395H252.556V78.0758Z" fill="#78DC78"/>
<path d="M402.306 45.9476C406.939 43.1896 409.095 39.2726 409.095 34.7835C409.095 25.5558 402.116 18.9395 388.595 18.9395H371.213H370.179H358.494V78.0758H391.582C404.447 78.0758 413.015 72.0756 413.015 60.8381C413 54.5591 409.416 48.3242 402.306 45.9476ZM371.213 30.0303H388.217C393.345 30.0303 396.376 31.8347 396.376 36.0304C396.376 40.2262 393.345 42.0306 388.217 42.0306H371.213V30.0303ZM391.189 66.9849H371.213V53.1214H391.189C396.74 53.1214 400.28 54.9552 400.28 60.0459C400.28 65.1658 396.74 66.9849 391.189 66.9849Z" fill="#78DC78"/>
</g>
<defs>
<clipPath id="clip0_49_3">
<rect width="413" height="79" fill="white"/>
</clipPath>
</defs>
</svg>
