<?xml version="1.0" encoding="UTF-8"?>
<!DOCTYPE svg PUBLIC "-//W3C//DTD SVG 1.1//EN" "http://www.w3.org/Graphics/SVG/1.1/DTD/svg11.dtd">
<!-- Creator: CorelDRAW 2019 (64-Bit) -->
<svg xmlns="http://www.w3.org/2000/svg" xml:space="preserve" width="201mm" height="201mm" version="1.1" style="shape-rendering:geometricPrecision; text-rendering:geometricPrecision; image-rendering:optimizeQuality; fill-rule:evenodd; clip-rule:evenodd"
viewBox="0 0 13324.93 13324.93"
 xmlns:xlink="http://www.w3.org/1999/xlink"
 xmlns:xodm="http://www.corel.com/coreldraw/odm/2003">
 <defs>
  <style type="text/css">
   <![CDATA[
    .fil2 {fill:#005A5A;fill-rule:nonzero}
    .fil0 {fill:#78DC78;fill-rule:nonzero}
    .fil1 {fill:white;fill-rule:nonzero}
   ]]>
  </style>
 </defs>
 <g id="Слой_x0020_1">
  <metadata id="CorelCorpID_0Corel-Layer"/>
  <polygon class="fil0" points="13324.93,13324.93 -0,13324.93 -0,0 13324.93,0 "/>
  <g id="_2089787195168">
   <g>
    <polygon class="fil1" points="9778.24,10275.45 7789.45,10275.45 7789.45,7292.25 9778.24,7292.25 "/>
   </g>
   <g>
    <polygon class="fil1" points="5800.65,7292.25 3811.86,7292.25 3811.86,2519.14 5800.65,2519.14 "/>
   </g>
   <path class="fil2" d="M6795.06 4309.05c-1644.94,0 -2983.2,1338.26 -2983.2,2983.2l0.01 2983.2 1988.79 0 0 -2983.2c0,-548.31 446.09,-994.4 994.4,-994.4 548.31,0 994.39,446.09 994.39,994.4l1988.8 0c0,-1644.94 -1338.25,-2983.2 -2983.19,-2983.2z"/>
  </g>
 </g>
</svg>
