<?xml version="1.0" encoding="UTF-8"?>
<!DOCTYPE svg PUBLIC "-//W3C//DTD SVG 1.1//EN" "http://www.w3.org/Graphics/SVG/1.1/DTD/svg11.dtd">
<!-- Creator: CorelDRAW 2019 (64-Bit) -->
<svg xmlns="http://www.w3.org/2000/svg" xml:space="preserve" width="200mm" height="66.6667mm" version="1.1" style="shape-rendering:geometricPrecision; text-rendering:geometricPrecision; image-rendering:optimizeQuality; fill-rule:evenodd; clip-rule:evenodd"
viewBox="0 0 3404.27 1134.76"
 xmlns:xlink="http://www.w3.org/1999/xlink"
 xmlns:xodm="http://www.corel.com/coreldraw/odm/2003">
 <defs>
  <style type="text/css">
   <![CDATA[
    .fil0 {fill:#78DC78;fill-rule:nonzero}
    .fil1 {fill:white;fill-rule:nonzero}
   ]]>
  </style>
 </defs>
 <g id="Слой_x0020_1">
  <metadata id="CorelCorpID_0Corel-Layer"/>
  <polygon class="fil0" points="-0,0 3404.27,0 3404.27,1134.75 -0,1134.76 "/>
  <g id="_2089654996016">
   <g>
    <path class="fil1" d="M973.98 445.41c-67.77,0 -122.91,55.14 -122.91,122.91l0 122.91 81.94 0 0 -122.91c0,-22.59 18.38,-40.97 40.97,-40.97 22.59,0 40.97,18.38 40.97,40.97l81.94 0c0,-67.77 -55.14,-122.91 -122.91,-122.91z"/>
    <path class="fil1" d="M933.01 434.52l0 -62.86 -81.94 0 0 129.83c17.36,-31.81 46.72,-56.16 81.94,-66.97z"/>
    <path class="fil1" d="M973.98 445.41c-67.77,0 -122.91,55.14 -122.91,122.91l0 122.91 81.94 0 0 -122.91c0,-22.59 18.38,-40.97 40.97,-40.97 22.59,0 40.97,18.38 40.97,40.97l81.94 0c0,-67.77 -55.14,-122.91 -122.91,-122.91z"/>
    <polygon class="fil1" points="1014.95,585.34 1014.95,691.23 1096.89,691.23 1096.89,585.34 "/>
   </g>
   <g>
    <path class="fil1" d="M1403.51 532.39c0,-45.95 -32.59,-83.2 -88.33,-83.2l-136.35 0 0 242.04 52.43 0 0 -75.64 55.54 0 56 75.64 60.71 0 -61.22 -78.94c39.04,-10.05 61.22,-42 61.22,-79.9zm-89.89 37.82l0 0 -82.35 0 0 -75.64 82.35 0c25.31,0 37.45,16.93 37.45,37.82 0,20.89 -12.15,37.82 -37.45,37.82z"/>
    <path class="fil1" d="M2293.69 532.39c0,-45.95 -32.58,-83.2 -88.33,-83.2l-102.85 0 0 242.04 52.44 0 0 -75.64 23.21 0 54.83 75.64 60.71 0 -61.22 -78.94c39.04,-10.05 61.22,-42 61.22,-79.9zm-89.89 37.82l0 0 -48.86 0 0 -75.64 48.86 0c25.31,0 37.45,16.93 37.45,37.82 0,20.89 -12.15,37.82 -37.45,37.82z"/>
    <path class="fil1" d="M1571.16 601.72c0,29.45 -19.32,43.58 -43.15,43.58 -23.83,0 -43.16,-14.13 -43.16,-43.58l0 -152.53 -52.43 0 0 142.36c0,65.3 42.8,103.47 95.59,103.47 52.79,0 95.59,-38.17 95.59,-103.47l0 -142.36 -52.44 0 0 152.53z"/>
    <polygon class="fil1" points="1788.04,543.74 1723.15,543.74 1723.15,449.19 1670.71,449.19 1670.71,691.23 1723.15,691.23 1723.15,589.12 1788.04,589.12 1788.04,691.23 1840.48,691.23 1840.48,449.19 1788.04,449.19 "/>
    <polygon class="fil1" points="1891.93,691.23 2061.69,691.23 2061.69,645.85 1944.36,645.85 1944.36,589.12 2035.41,589.12 2035.41,543.74 1944.36,543.74 1944.36,494.57 2061.69,494.57 2061.69,449.19 1891.93,449.19 "/>
    <path class="fil1" d="M2509.11 559.73c19.09,-11.28 27.97,-27.34 27.97,-45.7 0,-37.78 -28.75,-64.84 -84.49,-64.84l-71.64 0 -4.29 0 -48.14 0 0 242.04 136.35 0c53.03,0 88.33,-24.58 88.33,-70.54 0,-25.69 -14.82,-51.25 -44.09,-60.96zm-128.16 -65.16l0 0 70.08 0c21.13,0 33.61,7.41 33.61,24.58 0,17.17 -12.48,24.58 -33.61,24.58l-70.08 0 0 -49.17zm82.35 151.28l0 0 -82.35 0 0 -56.73 82.35 0c22.85,0 37.45,7.48 37.45,28.37 0,20.89 -14.6,28.36 -37.45,28.36z"/>
   </g>
  </g>
 </g>
</svg>
