<svg xmlns="http://www.w3.org/2000/svg" viewBox="0 0 367.15 48.19"><defs><style>.cls-1{fill:#78dc78;}.cls-2{fill:#fff;}</style></defs><title>ruherb-logo5</title><g id="Layer_2" data-name="Layer 2"><g id="layer"><rect class="cls-1" x="24.42" y="29.31" width="12.21" height="18.32"/><rect class="cls-1" width="12.21" height="29.31"/><path class="cls-2" d="M18.32,11A18.34,18.34,0,0,0,0,29.31V47.63H12.21V29.31a6.11,6.11,0,1,1,12.21,0H36.63A18.33,18.33,0,0,0,18.32,11Z"/><path class="cls-2" d="M82.33,24c0-6.84-4.86-12.4-13.16-12.4H48.85V47.63h7.81V36.35h8.28l8.34,11.28h9L73.21,35.86A11.85,11.85,0,0,0,82.33,24Zm-13.4,5.64H56.66V18.32H68.93c3.78,0,5.59,2.52,5.59,5.63S72.71,29.59,68.93,29.59Z"/><path class="cls-1" d="M215,24c0-6.84-4.85-12.4-13.16-12.4H186.5V47.63h7.81V36.35h3.46l8.17,11.28H215l-9.12-11.77A11.84,11.84,0,0,0,215,24ZM201.6,29.59h-7.29V18.32h7.29c3.77,0,5.58,2.52,5.58,5.63S205.37,29.59,201.6,29.59Z"/><path class="cls-2" d="M326,24c0-6.84-4.85-12.4-13.16-12.4H297.53V47.63h7.81V36.35h3.46L317,47.63h9L316.9,35.86A11.84,11.84,0,0,0,326,24Zm-13.39,5.64h-7.29V18.32h7.29c3.77,0,5.58,2.52,5.58,5.63S316.4,29.59,312.63,29.59Z"/><path class="cls-2" d="M107.31,34.29c0,4.38-2.87,6.49-6.43,6.49s-6.43-2.11-6.43-6.49V11.55H86.64V32.77c0,9.73,6.38,15.42,14.24,15.42s14.25-5.69,14.25-15.42V11.55h-7.82Z"/><polygon class="cls-1" points="139.64 25.64 129.97 25.64 129.97 11.55 122.15 11.55 122.15 47.63 129.97 47.63 129.97 32.41 139.64 32.41 139.64 47.63 147.45 47.63 147.45 11.55 139.64 11.55 139.64 25.64"/><polygon class="cls-1" points="155.12 47.63 180.42 47.63 180.42 40.86 162.93 40.86 162.93 32.41 176.5 32.41 176.5 25.64 162.93 25.64 162.93 18.32 180.42 18.32 180.42 11.55 155.12 11.55 155.12 47.63"/><path class="cls-1" d="M247.1,28a7.68,7.68,0,0,0,4.16-6.81c0-5.63-4.28-9.67-12.59-9.67H220.18V47.63H240.5c7.91,0,13.17-3.67,13.17-10.52A9.41,9.41,0,0,0,247.1,28ZM228,18.32h10.44c3.15,0,5,1.1,5,3.66s-1.86,3.66-5,3.66H228Zm12.27,22.54H228V32.41h12.27c3.41,0,5.58,1.11,5.58,4.22S243.68,40.86,240.27,40.86Z"/><path class="cls-2" d="M279.18,11.55H258.86V47.63h7.81V36.35h12.51c8.3,0,13.16-5.55,13.16-12.4S287.48,11.55,279.18,11.55Zm-.24,18H266.67V18.32h12.27c3.77,0,5.58,2.52,5.58,5.63S282.71,29.59,278.94,29.59Z"/><path class="cls-2" d="M348.56,11a18.6,18.6,0,1,0,18.59,18.6A18.6,18.6,0,0,0,348.56,11Zm0,29.79c-6,0-10.79-4.24-10.79-11.19S342.6,18.4,348.56,18.4s10.78,4.24,10.78,11.19S354.51,40.78,348.56,40.78Z"/></g></g></svg>