<svg xmlns="http://www.w3.org/2000/svg" viewBox="0 0 367.15 47.63"><defs><style>.cls-1{fill:#fff;}</style></defs><title>ruherb-logo6</title><g id="Layer_2" data-name="Layer 2"><g id="layer"><path class="cls-1" d="M82.33,23.39c0-6.85-4.86-12.4-13.16-12.4H48.85V47.06h7.81V35.79h8.28l8.34,11.27h9L73.21,35.3A11.85,11.85,0,0,0,82.33,23.39ZM68.93,29H56.66V17.75H68.93c3.78,0,5.59,2.53,5.59,5.64S72.71,29,68.93,29Z"/><path class="cls-1" d="M215,23.39c0-6.85-4.85-12.4-13.16-12.4H186.5V47.06h7.81V35.79h3.46l8.17,11.27H215L205.87,35.3A11.84,11.84,0,0,0,215,23.39ZM201.6,29h-7.29V17.75h7.29c3.77,0,5.58,2.53,5.58,5.64S205.37,29,201.6,29Z"/><path class="cls-1" d="M326,23.39c0-6.85-4.85-12.4-13.16-12.4H297.53V47.06h7.81V35.79h3.46L317,47.06h9L316.9,35.3A11.84,11.84,0,0,0,326,23.39ZM312.63,29h-7.29V17.75h7.29c3.77,0,5.58,2.53,5.58,5.64S316.4,29,312.63,29Z"/><path class="cls-1" d="M107.31,33.72c0,4.39-2.87,6.5-6.43,6.5s-6.43-2.11-6.43-6.5V11H86.64V32.21c0,9.73,6.38,15.42,14.24,15.42s14.25-5.69,14.25-15.42V11h-7.82Z"/><polygon class="cls-1" points="139.64 25.08 129.97 25.08 129.97 10.99 122.15 10.99 122.15 47.06 129.97 47.06 129.97 31.84 139.64 31.84 139.64 47.06 147.45 47.06 147.45 10.99 139.64 10.99 139.64 25.08"/><polygon class="cls-1" points="155.12 47.06 180.42 47.06 180.42 40.3 162.93 40.3 162.93 31.84 176.5 31.84 176.5 25.08 162.93 25.08 162.93 17.75 180.42 17.75 180.42 10.99 155.12 10.99 155.12 47.06"/><path class="cls-1" d="M247.1,27.46a7.67,7.67,0,0,0,4.16-6.81C251.26,15,247,11,238.67,11H220.18V47.06H240.5c7.91,0,13.17-3.66,13.17-10.51A9.42,9.42,0,0,0,247.1,27.46ZM228,17.75h10.44c3.15,0,5,1.11,5,3.67s-1.86,3.66-5,3.66H228ZM240.27,40.3H228V31.84h12.27c3.41,0,5.58,1.12,5.58,4.23S243.68,40.3,240.27,40.3Z"/><path class="cls-1" d="M279.18,11H258.86V47.06h7.81V35.79h12.51c8.3,0,13.16-5.55,13.16-12.4S287.48,11,279.18,11Zm-.24,18H266.67V17.75h12.27c3.77,0,5.59,2.53,5.59,5.64S282.71,29,278.94,29Z"/><path class="cls-1" d="M348.56,10.43A18.6,18.6,0,1,0,367.15,29,18.59,18.59,0,0,0,348.56,10.43Zm0,29.79c-6,0-10.79-4.25-10.79-11.19s4.83-11.19,10.79-11.19S359.34,22.08,359.34,29,354.51,40.22,348.56,40.22Z"/><path class="cls-1" d="M12.21,9.37V0H0V19.35A21,21,0,0,1,12.21,9.37Z"/><path class="cls-1" d="M18.32,11A18.34,18.34,0,0,0,0,29.31V47.63H12.21V29.31a6.11,6.11,0,1,1,12.21,0H36.63A18.33,18.33,0,0,0,18.32,11Z"/><rect class="cls-1" x="24.42" y="31.84" width="12.21" height="15.78"/></g></g></svg>